<svg xmlns="http://www.w3.org/2000/svg" viewBox="0 0 64 64"><path fill="#5aaae7" d="M54,11V57a4.01,4.01,0,0,1-4,4H14a4,4,0,0,1-4-4V7a4,4,0,0,1,4-4H46V9a2.006,2.006,0,0,0,2,2Z"/><path fill="#3d9ae2" d="M54,51v6a3.989,3.989,0,0,1-.54,2H34l-3-2H29a2,2,0,0,1,0-4h2l3-2Z"/><path fill="#e0e0e2" d="M59.83,50.17A4,4,0,0,1,57,57H55V49h2A4.025,4.025,0,0,1,59.83,50.17Z"/><polygon fill="#d8d7da" points="54 49 52 49 52 53 52 57 54 57 55 57 55 49 54 49"/><rect width="27" height="8" x="27" y="39" fill="#3d9ae2"/><polygon fill="#ffd422" points="54 37 25 37 25 45 31 45 35 45 39 45 43 45 47 45 51 45 54 45 55 45 61 45 61 37 54 37"/><path fill="#3d9ae2" d="M54,11H48a2.006,2.006,0,0,1-2-2V3Z"/><rect width="19" height="4" x="33" y="53" fill="#00ccb3"/><rect width="19" height="4" x="33" y="49" fill="#00b39d"/><path fill="#3d9ae2" d="M43.68,24.47a9.8,9.8,0,0,1-1.09,2.62l2.02,2.69-2.83,2.83-2.69-2.02a9.8,9.8,0,0,1-2.62,1.09L36,35H32l-.47-3.32a9.8,9.8,0,0,1-2.62-1.09l-2.69,2.02-2.83-2.83,2.02-2.69a9.8,9.8,0,0,1-1.09-2.62L21,24V20l3.32-.47a9.8,9.8,0,0,1,1.09-2.62l-2.02-2.69,2.83-2.83,2.69,2.02a9.8,9.8,0,0,1,2.62-1.09L32,9h4l.47,3.32a9.8,9.8,0,0,1,2.62,1.09l2.69-2.02,2.83,2.83-2.02,2.69a9.8,9.8,0,0,1,1.09,2.62L47,20v4Z"/><path fill="#ff9811" d="M41.68,22.47a9.8,9.8,0,0,1-1.09,2.62l2.02,2.69-2.83,2.83-2.69-2.02a9.8,9.8,0,0,1-2.62,1.09L34,33H30l-.47-3.32a9.8,9.8,0,0,1-2.62-1.09l-2.69,2.02-2.83-2.83,2.02-2.69a9.8,9.8,0,0,1-1.09-2.62L19,22V18l3.32-.47a9.8,9.8,0,0,1,1.09-2.62l-2.02-2.69,2.83-2.83,2.69,2.02a9.8,9.8,0,0,1,2.62-1.09L30,7h4l.47,3.32a9.8,9.8,0,0,1,2.62,1.09l2.69-2.02,2.83,2.83-2.02,2.69a9.8,9.8,0,0,1,1.09,2.62L45,18v4Z"/><circle cx="32" cy="20" r="5" fill="#ffd422"/><polygon fill="#c6c5ca" points="33 53 33 57 32 57 29 55 29 51 32 49 33 49 33 53"/><path fill="#898890" d="M29,51v4H27a2,2,0,0,1,0-4Z"/><path fill="#ffa733" d="M24,56,10,42,3,35V61H29ZM10,57H7V44.66l3,3L19.34,57Z"/><path d="M50 60H32v2H50a4.994 4.994 0 0 0 3.307-1.25l-1.323-1.5A3 3 0 0 1 50 60zM54.71 10.29l-8-8A1.033 1.033 0 0 0 46 2H14A5 5 0 0 0 9 7V37h2V7a3.009 3.009 0 0 1 3-3H45V9a3.009 3.009 0 0 0 3 3h5V34h2V11A1.033 1.033 0 0 0 54.71 10.29zM48 10a1 1 0 0 1-1-1V5.41L51.59 10zM57 48H32a.967.967 0 0 0-.55.17L28.7 50H27a3 3 0 0 0 0 6h1.7l2.75 1.83A.967.967 0 0 0 32 58H57a5 5 0 0 0 0-10zM28 54H27a1 1 0 0 1 0-2h1zm4 1.8l-2-1.34V51.54l2-1.34zM51 56H34V54H51zm0-4H34V50H51zm3 4H53V50h1zm3 0H56V50h1a3 3 0 0 1 0 6z"/><path d="M61 36H25a1 1 0 0 0-1 1v8a1 1 0 0 0 1 1H61a1 1 0 0 0 1-1V37A1 1 0 0 0 61 36zm-1 8H56V40H54v4H52V42H50v2H48V42H46v2H44V40H42v4H40V42H38v2H36V42H34v2H32V40H30v4H26V38H60zM3.707 34.293A1 1 0 0 0 2 35V61a1 1 0 0 0 1 1H29a1 1 0 0 0 .707-1.707zM4 60V37.414L26.586 60z"/><path d="M7,58H19.343a1,1,0,0,0,.707-1.707L7.707,43.949A1,1,0,0,0,6,44.656V57A1,1,0,0,0,7,58ZM8,47.07,16.929,56H8Z"/><rect width="6" height="2" x="15" y="34"/><rect width="6" height="2" x="15" y="38"/><rect width="6" height="2" x="15" y="42"/><path d="M45.142,22.99A1,1,0,0,0,46,22V18a1,1,0,0,0-.858-.99l-2.682-.383a10.855,10.855,0,0,0-.678-1.639l1.624-2.167a1,1,0,0,0-.093-1.306L40.485,8.687a1,1,0,0,0-1.307-.093l-2.166,1.625a10.9,10.9,0,0,0-1.639-.679L34.99,6.858A1,1,0,0,0,34,6H30a1,1,0,0,0-.99.858L28.627,9.54a10.86,10.86,0,0,0-1.639.679L24.822,8.594a1,1,0,0,0-1.307.093l-2.828,2.828a1,1,0,0,0-.093,1.306l1.624,2.167a10.855,10.855,0,0,0-.678,1.639l-2.682.383A1,1,0,0,0,18,18v4a1,1,0,0,0,.858.99l2.682.383a10.855,10.855,0,0,0,.678,1.639l-1.624,2.167a1,1,0,0,0,.093,1.306l2.828,2.828a1,1,0,0,0,1.307.093l2.166-1.625a10.86,10.86,0,0,0,1.639.679l.383,2.682A1,1,0,0,0,30,34h4a1,1,0,0,0,.99-.858l.383-2.682a10.9,10.9,0,0,0,1.639-.679l2.166,1.625a1,1,0,0,0,1.307-.093l2.828-2.828a1,1,0,0,0,.093-1.306l-1.624-2.167a10.855,10.855,0,0,0,.678-1.639Zm-3.605-1.506a1,1,0,0,0-.828.744,8.859,8.859,0,0,1-.975,2.356,1,1,0,0,0,.06,1.11l1.492,1.991-1.6,1.6L37.7,27.794a1,1,0,0,0-1.111-.061,8.923,8.923,0,0,1-2.357.977,1,1,0,0,0-.742.827L33.133,32H30.867l-.352-2.463a1,1,0,0,0-.742-.827,8.923,8.923,0,0,1-2.357-.977,1,1,0,0,0-1.111.061l-1.99,1.492-1.6-1.6,1.492-1.991a1,1,0,0,0,.06-1.11,8.859,8.859,0,0,1-.975-2.356,1,1,0,0,0-.828-.744L20,21.133V18.867l2.463-.351a1,1,0,0,0,.828-.744,8.859,8.859,0,0,1,.975-2.356,1,1,0,0,0-.06-1.11l-1.492-1.991,1.6-1.6,1.99,1.492a1,1,0,0,0,1.111.061,8.923,8.923,0,0,1,2.357-.977,1,1,0,0,0,.742-.827L30.867,8h2.266l.352,2.463a1,1,0,0,0,.742.827,8.923,8.923,0,0,1,2.357.977,1,1,0,0,0,1.111-.061l1.99-1.492,1.6,1.6-1.492,1.991a1,1,0,0,0-.06,1.11,8.859,8.859,0,0,1,.975,2.356,1,1,0,0,0,.828.744L44,18.867v2.266Z"/><path d="M32,14a6,6,0,1,0,6,6A6.006,6.006,0,0,0,32,14Zm0,10a4,4,0,1,1,4-4A4,4,0,0,1,32,24Z"/></svg>