<svg xmlns="http://www.w3.org/2000/svg" viewBox="0 0 64 64"><g data-name="Target Location"><polyline fill="none" stroke="#000" stroke-linecap="round" stroke-linejoin="round" stroke-width="2" points="56.38 52 3.11 52 10.89 22 12.46 22"/><polyline fill="none" stroke="#000" stroke-linecap="round" stroke-linejoin="round" stroke-width="2" points="31.61 22 53.11 22 60.89 52"/><polyline fill="none" stroke="#000" stroke-linecap="round" stroke-linejoin="round" stroke-width="2" points="55.18 29.99 50.14 31.62 50.13 31.62"/><polyline fill="none" stroke="#000" stroke-linecap="round" stroke-linejoin="round" stroke-width="2" points="46.39 32.83 29.97 38.13 26.21 39.34 4.59 46.32 4.58 46.32"/><line x1="30.26" x2="12.57" y1="42.71" y2="48.42" fill="none" stroke="#000" stroke-linecap="round" stroke-linejoin="round" stroke-width="2"/><polyline fill="none" stroke="#000" stroke-linecap="round" stroke-linejoin="round" stroke-width="2" points="34 41.5 50.43 36.2 53.05 35.35"/><line x1="37.55" x2="30.26" y1="48.79" y2="42.71" fill="none" stroke="#000" stroke-linecap="round" stroke-linejoin="round" stroke-width="2"/><line x1="46.6" x2="34" y1="52" y2="41.5" fill="none" stroke="#000" stroke-linecap="round" stroke-linejoin="round" stroke-width="2"/><polyline fill="none" stroke="#000" stroke-linecap="round" stroke-linejoin="round" stroke-width="2" points="50.14 31.62 50.13 31.62 42.35 25.13"/><line x1="46.39" x2="33.4" y1="32.83" y2="22" fill="none" stroke="#000" stroke-linecap="round" stroke-linejoin="round" stroke-width="2"/><circle cx="22" cy="18.67" r="6.67" fill="none" stroke="#000" stroke-linecap="round" stroke-linejoin="round" stroke-width="2"/><path fill="none" stroke="#000" stroke-linecap="round" stroke-linejoin="round" stroke-width="2" d="M22.69,15.06a3.7,3.7,0,0,1,2.65,2.09"/><line x1="22" x2="22" y1="25.33" y2="33.11" fill="none" stroke="#000" stroke-linecap="round" stroke-linejoin="round" stroke-width="2"/></g></svg>