<svg xmlns="http://www.w3.org/2000/svg" viewBox="0 0 64 64"><path fill="#ff5023" d="M55,9H11a2,2,0,0,0-2,2v5H57V11A2.006,2.006,0,0,0,55,9Z"/><rect width="2" height="7" x="51" y="9" fill="#ed1c24"/><path fill="#3d9ae2" d="M57,16V55a2.006,2.006,0,0,1-2,2H11a2.006,2.006,0,0,1-2-2V16Z"/><path fill="#1e81ce" d="M53,16V51a2.006,2.006,0,0,1-2,2H9V16Z"/><path fill="#5aaae7" d="M51,11V49a2.006,2.006,0,0,1-2,2H5a2.006,2.006,0,0,1-2-2V11Z"/><path fill="#3d9ae2" d="M51,21.92V49a2.006,2.006,0,0,1-2,2H17.34C27.44,45.36,41.55,35.71,51,21.92Z"/><polygon fill="#e6e7e8" points="51 46.93 43.79 34.45 37.13 42.91 41.13 49.84 42.2 49.69 51 48.41 51.79 48.3 51 46.93"/><path fill="#ff9811" d="M55.26,46.3l-3.14-5.43L51,38.92l-.61-1.04v-.01l-3.13-5.42a2,2,0,0,0-1.73-1,1.905,1.905,0,0,0-1,.27,2,2,0,0,0-.74,2.73L51,46.93l.79,1.37a2,2,0,1,0,3.47-2Z"/><path fill="#ff5023" d="M53.86 37.88a2.009 2.009 0 0 0-2.74-.74.834.834 0 0 0-.12.08 2.1 2.1 0 0 0-.61.65v.01L51 38.92l1.12 1.95a1.9 1.9 0 0 0 1-.26A2 2 0 0 0 53.86 37.88zM49 3H5A2.006 2.006 0 0 0 3 5v6H51V5A2.006 2.006 0 0 0 49 3z"/><path fill="#c6c5ca" d="M46,56.27,42.96,51l-.76-1.31-1.07.15L39.12,51l-1.45.84-.87.5L39.49,57l1.31,2.27a2.018,2.018,0,0,0,2.74.73l1.73-1a2.015,2.015,0,0,0,.98-2A1.982,1.982,0,0,0,46,56.27Z"/><polygon fill="#ff5023" points="37.13 42.91 33.67 44.91 37.19 51 37.67 51.84 39.12 51 41.13 49.84 37.13 42.91"/><path fill="#ff9811" d="M37.19,51l-3.52-6.09-1.73,1a1.988,1.988,0,0,0-.73,2.73L32.57,51l.64,1.11a2,2,0,0,0,2.73.73l.86-.5.87-.5Z"/><rect width="12" height="10" x="9" y="17" fill="#ffd422"/><path d="M10 55V52H29V50H5a1 1 0 0 1-1-1V12H50V29h2V17h4V27h2V11a3 3 0 0 0-3-3H52V5a3 3 0 0 0-3-3H5A3 3 0 0 0 2 5V49a3 3 0 0 0 3 3H8v3a3 3 0 0 0 3 3H36V56H11A1 1 0 0 1 10 55zM55 10a1 1 0 0 1 1 1v4H52V10zM5 4H49a1 1 0 0 1 1 1v5H4V5A1 1 0 0 1 5 4zM56 55a1 1 0 0 1-1 1H49v2h6a3 3 0 0 0 3-3V51H56z"/><rect width="2" height="2" x="8" y="6"/><rect width="2" height="2" x="12" y="6"/><rect width="2" height="2" x="16" y="6"/><path d="M21,28a1,1,0,0,0,1-1V17a1,1,0,0,0-1-1H9a1,1,0,0,0-1,1V27a1,1,0,0,0,1,1ZM10,18H20v8H10Z"/><rect width="2" height="2" x="26" y="16"/><rect width="2" height="2" x="30" y="16"/><rect width="8" height="2" x="34" y="16"/><rect width="16" height="2" x="26" y="20"/><rect width="16" height="2" x="26" y="24"/><rect width="16" height="2" x="26" y="28"/><rect width="18" height="2" x="8" y="32"/><rect width="18" height="2" x="8" y="36"/><rect width="18" height="2" x="8" y="40"/><rect width="18" height="2" x="8" y="44"/><path d="M43.805,50.465l7.565-1.09a2.983,2.983,0,0,0,3.656.527h0a3.005,3.005,0,0,0,1.1-4.1l-2.5-4.33a3,3,0,0,0-3-5.2h0l-2.5-4.33a3,3,0,0,0-5.471,2.334l-6.186,7.86-5.03,2.9a3.005,3.005,0,0,0-1.1,4.1l2,3.464a3,3,0,0,0,4.1,1.1l3.5,6.062a3,3,0,0,0,4.1,1.1l1.732-1a3,3,0,0,0,1.1-4.1Zm9.185-12.09a1,1,0,0,1-.365,1.366h0l-1-1.732A1,1,0,0,1,52.99,38.375Zm-7.964-5.793a1,1,0,0,1,1.366.365l8,13.857a1,1,0,1,1-1.731,1l-8-13.857A1,1,0,0,1,45.026,32.582Zm-1.359,3.644,6.523,11.3-8.529,1.228L38.338,43Zm-6.9,8.052,3,5.2-1.732,1-3-5.2Zm-2.7,7.33-2-3.464a1,1,0,0,1,.366-1.366l.866-.5,3,5.2-.866.5A1,1,0,0,1,34.072,51.608Zm10.7,6.526-1.732,1a1,1,0,0,1-1.366-.366l-3.5-6.062,3.3-1.9.2-.029,3.461,5.995A1,1,0,0,1,44.768,58.134Z"/><rect width="4" height="2" x="56.187" y="34.375" transform="rotate(-30.002 58.187 35.375)"/><rect width="4.243" height="2" x="52.016" y="30.363" transform="rotate(-74.999 54.138 31.363)"/><rect width="2" height="4.243" x="58.638" y="38.768" transform="rotate(-75 59.638 40.889)"/></svg>