<svg xmlns="http://www.w3.org/2000/svg" width="194" height="218" fill-rule="evenodd" clip-rule="evenodd" image-rendering="optimizeQuality" shape-rendering="geometricPrecision" text-rendering="geometricPrecision" viewBox="0 0 3530 3970"><path fill="#e4e7ed" d="M1940 48l1415 817c111,64 175,174 175,303l0 1634c0,128 -64,238 -175,303l-1415 817c-111,64 -238,64 -349,0l-1415 -817c-111,-64 -175,-174 -175,-303l0 -1634c0,-128 64,-238 175,-303l1415 -817c111,-64 238,-64 349,0z"/><path fill="#c6cbd6" fill-rule="nonzero" d="M1835 1645c35,0 68,6 99,16 32,11 62,27 89,47l-15 20c-24,-19 -52,-33 -82,-43 -29,-10 -59,-15 -91,-15l0 -25zm7 580c-35,0 -68,-6 -99,-16 -32,-11 -62,-27 -89,-47l15 -20c24,19 52,33 82,43 29,10 59,15 91,15l0 25zm200 -10c-29,20 -61,35 -96,45 -33,10 -68,15 -105,15 -52,0 -101,-11 -145,-30 -46,-20 -87,-50 -121,-87l19 -17c31,34 70,62 112,81 41,18 87,28 135,28 34,0 67,-5 97,-14 32,-10 62,-24 89,-42l14 21zm-408 -560c29,-20 61,-35 96,-45 33,-10 68,-15 105,-15 52,0 101,11 145,30 46,20 87,50 121,87l-19 17c-31,-34 -70,-62 -112,-81 -41,-18 -87,-28 -135,-28 -34,0 -67,5 -97,14 -32,10 -62,24 -89,42l-14 -21z"/><path fill="#fed298" d="M1608 1770l138 68c0,0 119,-31 127,-29 9,3 4,2 7,3l0 0c32,13 134,62 134,62l-29 -2c12,15 28,35 38,41 16,10 -22,38 -53,17 -31,-20 -40,-45 -40,-45l-16 2 109 100 17 21c15,18 -4,44 -28,36 0,0 -1,0 -1,1 1,4 4,13 2,17 -9,16 -23,28 -51,6 7,5 11,18 6,25 -7,10 -14,14 -22,17 -8,3 -21,-5 -28,-11 7,5 10,18 6,25 -6,9 -24,22 -35,14l-36 -27c0,0 -88,-85 -115,-108 -27,-23 -64,-49 -64,-49l-195 -55 128 -129z"/><polygon fill="#fff" points="1661 1779 1717 1802 1614 1968 1558 1945"/><path fill="#8597b1" d="M917 859l168 632 598 288 -112 185 -641 -233 -310 -706c54,-254 124,-290 297,-167z"/><polygon fill="#384a66" points="987 2549 983 3572 454 3266 435 2593"/><path fill="#384a66" d="M963 833c298,402 13,1152 77,1725 -50,200 -345,210 -691,98 0,0 100,-348 124,-654 22,-280 -19,-946 23,-1096 40,-140 136,-229 202,-257l266 183z"/><path fill="#ffe356" d="M491 2450l233 0c65,0 90,66 90,112l0 83 -413 0 0 -83c0,-46 25,-112 90,-112zm70 71l94 0c45,0 82,26 82,57l0 57 -258 0 0 -57c0,-32 37,-57 82,-57z"/><path fill="#83cf8f" d="M235 2620l744 0c30,0 55,25 55,55l0 501c0,30 -25,55 -55,55l-421 0 -95 0 -228 0c-30,0 -55,-25 -55,-55l0 -501c0,-30 25,-55 55,-55z"/><path fill="#83cf8f" d="M177 2620l860 0c17,0 31,14 31,31l0 282c0,17 -14,31 -31,31l-860 0c-17,0 -31,-14 -31,-31l0 -282c0,-17 14,-31 31,-31z"/><path fill="#fed298" d="M634 2230l17 122c0,0 65,52 67,56 2,3 13,42 13,42l-31 4 18 110c1,9 -20,30 -41,21 -5,-2 -11,-17 -16,-21 -12,39 -34,40 -61,15l-6 -6 -16 18c-10,11 -31,9 -41,-2l-11 -13c-25,31 -46,25 -62,-5l-5 -174 27 -45 2 -109 147 -13z"/><polygon fill="#fff" points="661 2275 658 2322 463 2310 466 2263"/><path fill="#8597b1" d="M883 1004l-13 102 -236 448 40 724 -211 -12 -115 -732 222 -676c104,-144 282,-71 313,146z"/><path fill="#fed298" d="M1227 124l38 62 0 116c0,2 -31,41 -31,41l21 44 31 111 -65 -2 -6 46 -44 3 24 26 -27 33 -8 56c-6,21 -21,31 -47,28l-114 -47 -65 114 -184 -98 -35 -15 39 -131 -2 -278c0,0 78,-227 474,-110z"/><path fill="#596366" d="M1298 65c-366,-84 -475,-80 -531,-27 -9,9 -128,174 -77,336 23,73 30,99 65,137l39 -199c12,-60 76,-65 87,-15 11,50 -20,63 -20,63l55 3 25 -126 116 -27 49 -61 157 36 33 -121z"/><polygon fill="#fff" points="734 565 962 707 963 833 697 651"/><path fill="#f0ba7d" d="M2173 1741l-143 96c-10,7 -50,-20 -83,-24 -24,-3 -52,6 -50,7l74 34c0,0 36,50 52,59 16,10 -22,38 -53,17 -31,-20 -40,-45 -40,-45l-65 7 -126 111c-17,15 -12,23 0,38 5,7 25,5 33,1 -19,14 8,52 35,31 -16,12 7,56 40,31 -16,22 17,38 31,34l10 -3 -3 -2c-1,0 -27,-27 -29,-30 -9,-19 15,-44 36,-26l18 14 -11 -13c-14,-18 -3,-36 10,-42 10,-4 19,0 27,8l20 16 -17 -20c0,0 -17,-19 -1,-35 15,-17 36,3 36,3l24 20 -21 -24c0,0 -18,-19 -6,-32 17,-18 38,0 54,17 5,5 10,13 13,16 18,-20 30,-43 30,-43l252 -95 -149 -129z"/><polygon fill="#fff" points="2104 1765 2046 1795 2150 1961 2207 1931"/><path fill="#ffbc86" d="M3113 2276l-34 76c0,0 -65,52 -67,56 -2,3 -14,72 -14,72l20 31 -8 65c0,0 22,19 42,10 5,-2 11,-17 16,-21l13 25 34 3 20 -18 19 20 28 2 22 -19 27 17 25 -2 11 -20 6 -197 -25 -45 -4 -85 -130 33z"/><polygon fill="#fff" points="3070 2275 3073 2322 3268 2310 3265 2263"/><path fill="#8597b1" d="M2848 1004l13 102 236 448 -40 724 211 -12 115 -732 -222 -676c-104,-144 -282,-71 -313,146z"/><polygon fill="#384a66" points="2744 2549 2747 3456 3286 3145 3296 2587"/><path fill="#384a66" d="M2768 833c-281,503 0,1033 -77,1725 50,200 345,210 691,98 0,0 -100,-348 -124,-654 -22,-280 19,-946 -23,-1096 -40,-140 -136,-229 -202,-257l-266 183z"/><path fill="#fed298" d="M2504 124l-38 62 0 116c0,2 31,41 31,41l-21 44 -31 111 65 -2 6 46 44 3 -24 26 27 33 8 56c6,21 21,31 47,28l114 -47 65 114 184 -98 35 -15 -39 -131 2 -278c0,0 -78,-227 -474,-110z"/><path fill="#8597b1" d="M2814 859l-168 632 -563 275 112 179 606 -213 310 -706c-54,-254 -124,-290 -297,-167z"/><path fill="#596366" d="M2433 65c366,-84 475,-80 531,-27 9,9 128,174 77,336 -23,73 -30,99 -65,137l-39 -199c-12,-60 -76,-65 -87,-15 -11,50 20,63 20,63l-54 3 -25 -126 -116 -27 -49 -61 -157 36 -33 -121z"/><polygon fill="#fff" points="2997 565 2769 707 2768 833 3033 651"/><rect width="857" height="23" x="177" y="2964" fill="#75bf80"/><path fill="#ffe356" d="M398 2930l86 0 0 52c0 24-19 43-43 43l0 0c-24 0-43-19-43-43l0-52zM742 2930l86 0 0 52c0 24-19 43-43 43l0 0c-24 0-43-19-43-43l0-52z"/></svg>