<svg xmlns="http://www.w3.org/2000/svg" enable-background="new 0 0 68 68" viewBox="0 0 68 68"><path fill="#DFE1E6" d="M2.26,26.57531v36.44914c0,1.64339,1.33223,2.97562,2.97562,2.97562h57.52872
			c1.64339,0,2.97562-1.33223,2.97562-2.97562V26.57531c0-1.64339-1.33224-2.97562-2.97562-2.97562H5.23562
			C3.59223,23.59969,2.26,24.93192,2.26,26.57531z"/><path fill="#C7CAD0" d="M65.74171,26.57816v36.45001c0,1.63995-1.33002,2.96997-2.98005,2.96997H5.23169
			c-1.64001,0-2.97003-1.33002-2.97003-2.96997v-1.92999c36.88-1.68005,48.20001-27.31006,51.25-37.5h9.25
			C64.41169,23.59818,65.74171,24.92814,65.74171,26.57816z"/><path fill="#C7CAD0" d="M65.74646,26.57348v36.44995c0,1.64002-1.32996,2.97004-2.97998,2.97004H5.23651
			c-1.64001,0-2.97003-1.33002-2.97003-2.97004v-1.92999c9.09998-0.40997,16.65002-2.28998,22.90002-5.02997
			c6.87-3.01001,12.16998-7.07001,16.23999-11.39001c7.25-7.66998,10.64001-16.15997,12.10999-21.08002h9.25
			C64.4165,23.59344,65.74646,24.92345,65.74646,26.57348z"/><path fill="#DFE1E6" d="M9.34236,20.62406v2.97562h6.49622v-2.97562c0-0.5478-0.44408-0.99187-0.99187-0.99187h-4.51247
		C9.78643,19.63219,9.34236,20.07627,9.34236,20.62406z"/><line x1="12.59" x2="28.96" y1="19.632" y2="3.039" fill="#DFE1E6"/><circle cx="12.721" cy="51.374" r="5" fill="#FAC41D"/><path fill="#F4A01E" d="M17.72116,51.37468c0,2.75926-2.23847,4.9977-5.00227,4.9977c-2.70899,0-4.9109-2.15622-4.99313-4.84237
				c0.70351,0.39286,1.50753,0.62128,2.36637,0.635h0.07308c1.95066,0,3.64551-1.11924,4.46322-2.75469
				c0.34262-0.67609,0.53448-1.43442,0.53448-2.24301c0-0.05482,0-0.10963-0.00455-0.15991
				C16.68872,47.8617,17.72116,49.49713,17.72116,51.37468z"/><path fill="#5EA7DC" d="M61.27419,35.5912v-6.37248c0-0.5478-0.44408-0.99187-0.99187-0.99187H7.71297
			c-0.5478,0-0.99187,0.44408-0.99187,0.99187v6.37248c0,0.54779,0.44408,0.99187,0.99187,0.99187h52.56934
			C60.83012,36.58308,61.27419,36.139,61.27419,35.5912z"/><path fill="#3779BE" d="M61.27885,29.21727v6.3778c0,0.54552-0.44636,0.99187-0.99187,0.99187H7.71764
			c-0.55545,0-0.99187-0.44635-0.99187-0.99187v-2.45273c32.52354,0.23804,47.82622-2.12096,50.36463-4.91695h3.19659
			C60.8325,28.2254,61.27885,28.67175,61.27885,29.21727z"/><circle cx="33.996" cy="51.374" r="10" fill="#FFF"/><path fill="#DFE1E6" d="M43.99646,51.37346c0,5.51996-4.47998,10-10,10c-3.82996,0-7.14996-2.15002-8.82996-5.31
			c6.87-3.01001,12.16998-7.07001,16.23999-11.39001C43.01648,46.44347,43.99646,48.79345,43.99646,51.37346z"/><path fill="#231F20" d="M62.76416,22.59962H16.83838v-1.97559c0-1.05634-0.82916-1.91486-1.86908-1.97937L28.96484,4.45796
			l0.32666,0.32672c0.19531,0.19531,0.45117,0.29297,0.70703,0.29297S30.51025,4.98,30.70557,4.78468
			c0.39063-0.39014,0.39063-1.02344,0-1.41406l-1.04144-1.04169c-0.00067-0.00067-0.00085-0.00159-0.00085-0.00159
			c-0.00128-0.00128-0.0022-0.00146-0.00281-0.00208l-1.03204-1.03229c-0.39063-0.39063-1.02344-0.39063-1.41406,0
			c-0.39063,0.39014-0.39063,1.02344,0,1.41406l0.33649,0.33661l-15.3786,15.58868h-1.83777
			c-1.09863,0-1.99219,0.89355-1.99219,1.9917v1.97559H5.23584c-2.19238,0-3.97559,1.7832-3.97559,3.97559v36.44922
			c0,2.19238,1.7832,3.97559,3.97559,3.97559h57.52832c2.19238,0,3.97559-1.7832,3.97559-3.97559V26.57521
			C66.73975,24.38283,64.95654,22.59962,62.76416,22.59962z M10.33447,20.63234c0.2834-0.00052,4.78304-0.00882,4.50391-0.0083
			v1.97559h-4.49902L10.33447,20.63234z M64.73975,63.02443c0,1.08936-0.88672,1.97559-1.97559,1.97559H5.23584
			c-1.08887,0-1.97559-0.88623-1.97559-1.97559V26.57521c0-1.08936,0.88672-1.97559,1.97559-1.97559
			c9.54917,0,42.58106,0,57.52832,0c1.08887,0,1.97559,0.88623,1.97559,1.97559V63.02443z"/><path fill="#231F20" d="M12.72119 45.37453c-3.30859 0-6 2.69141-6 6s2.69141 6 6 6 6-2.69141 6-6S16.02979 45.37453 12.72119 45.37453zM12.72119 55.37453c-2.20605 0-4-1.79443-4-4s1.79395-4 4-4 4 1.79443 4 4S14.92725 55.37453 12.72119 55.37453zM60.28271 27.22707H7.71338c-1.09863 0-1.99219.89355-1.99219 1.9917v6.37256c0 1.09814.89355 1.9917 1.99219 1.9917h52.56934c1.09766 0 1.99121-.89355 1.99121-1.9917v-6.37256C62.27393 28.12062 61.38037 27.22707 60.28271 27.22707zM60.27393 35.58302l-35.32227.00555V31.4131c0-.55225-.44727-1-1-1s-1 .44775-1 1v4.17584L7.72119 35.59132l-.00781-6.36426 52.56055-.0083V35.58302zM60.28271 35.58302c0 0 0 0 .00098 0C60.18353 35.58302 60.18255 35.58302 60.28271 35.58302zM33.99561 40.37453c-6.06543 0-11 4.93457-11 11s4.93457 11 11 11 11-4.93457 11-11S40.06104 40.37453 33.99561 40.37453zM25.05481 52.37599H42.9364c-.13202 1.18579-.49261 2.30328-1.04095 3.30518H26.09576C25.54742 54.67928 25.18683 53.56178 25.05481 52.37599zM25.05438 50.37599c.13159-1.18567.49164-2.30322 1.03955-3.30518h15.80334c.54791 1.00195.90796 2.11951 1.03955 3.30518H25.05438zM33.99561 42.37453c2.50922 0 4.7793 1.03436 6.41309 2.69629H27.58252C29.21631 43.40889 31.48639 42.37453 33.99561 42.37453zM33.99561 60.37453c-2.50775 0-4.77686-1.03314-6.4104-2.69336h12.8208C38.77246 59.34138 36.50336 60.37453 33.99561 60.37453z"/><g><circle cx="54.679" cy="46.172" r="1.5" fill="#A3A6A8"/><circle cx="54.679" cy="56.577" r="1.5" fill="#A3A6A8"/><circle cx="59.779" cy="51.374" r="1.5" fill="#A3A6A8"/><circle cx="49.579" cy="51.374" r="1.5" fill="#A3A6A8"/><g><circle cx="54.579" cy="51.374" r="1.5" fill="#A3A6A8"/></g></g></svg>