<svg xmlns="http://www.w3.org/2000/svg" enable-background="new 0 0 512 512" viewBox="0 0 512 512"><rect width="94" height="96" x="209" y="320" fill="#b23998"/><rect width="94" height="64" x="209" y="320" fill="#751764"/><path fill="#68a1d6" d="M507,344H5V92c0-14.4,11.6-26,26-26h450c14.4,0,26,11.6,26,26V344z"/><path fill="#3179af" d="M492.5,202H381.2c-8,0-14.5,6.5-14.5,14.5V320H507V216.5C507,208.5,500.5,202,492.5,202z"/><path fill="#b23998" d="M481,370H31c-14.4,0-26-11.6-26-26v-24h502v24C507,358.4,495.4,370,481,370z"/><path fill="#751764" d="M481,370H366.7v-50H507v24C507,358.4,495.4,370,481,370z"/><rect width="10" height="10" x="55" y="340" fill="#f37787"/><rect width="10" height="10" x="75" y="340" fill="#f8d707"/><rect width="10" height="10" x="95" y="340" fill="#bebf31"/><path fill="#c075ac" d="M384,451c-15.8,0-31.7-3.8-45.7-11.1L301.8,421h-91.6l-36.5,18.9
				c-14.1,7.3-29.9,11.1-45.7,11.1v-10c14.3,0,28.5-3.5,41.1-10l37.6-19.4c0.7-0.4,1.5-0.6,2.3-0.6h94c0.8,0,1.6,0.2,2.3,0.6
				l37.6,19.4c12.7,6.5,26.9,10,41.1,10V451z"/><path fill="#b23998" d="M493.8,202h-97.5c-7.3,0-13.3,5.9-13.3,13.3v217.5c0,7.3,5.9,13.3,13.3,13.3h97.5
				c7.3,0,13.3-5.9,13.3-13.3V215.3C507,207.9,501.1,202,493.8,202z"/><rect width="20" height="10" x="405" y="220" fill="#f37787"/><rect width="20" height="10" x="405" y="243" fill="#c075ac"/><rect width="20" height="10" x="435" y="243" fill="#c075ac"/><rect width="20" height="10" x="465" y="243" fill="#c075ac"/><rect width="20" height="10" x="405" y="265" fill="#c075ac"/><rect width="20" height="10" x="435" y="265" fill="#c075ac"/><rect width="20" height="10" x="465" y="265" fill="#c075ac"/><rect width="20" height="10" x="405" y="288" fill="#c075ac"/><rect width="20" height="10" x="435" y="288" fill="#c075ac"/><rect width="20" height="10" x="465" y="288" fill="#c075ac"/><rect width="20" height="10" x="405" y="311" fill="#c075ac"/><rect width="20" height="10" x="435" y="311" fill="#c075ac"/><rect width="20" height="10" x="465" y="311" fill="#c075ac"/><rect width="20" height="10" x="465" y="220" fill="#c075ac"/><rect width="20" height="10" x="405" y="418" fill="#c075ac"/><rect width="20" height="10" x="465" y="418" fill="#c075ac"/><circle cx="445" cy="370" r="10" fill="#68a1d6"/><path fill="#68a1d6" d="M445,385c-8.3,0-15-6.7-15-15s6.7-15,15-15s15,6.7,15,15S453.3,385,445,385z M445,365
					c-2.8,0-5,2.2-5,5s2.2,5,5,5s5-2.2,5-5S447.8,365,445,365z"/><path fill="#f8d707" d="M467.8,157.3c-6.2-6.2-14.5-9.6-23.3-9.6s-17.1,3.4-23.3,9.6l-7.1-7.1
						c8.1-8.1,18.9-12.6,30.3-12.6s22.2,4.5,30.3,12.6L467.8,157.3z"/><path fill="#f8d707" d="M454.6 170.4c-2.7-2.7-6.3-4.2-10.1-4.2-3.8 0-7.4 1.5-10.1 4.2l-7.1-7.1c4.6-4.6 10.7-7.1 17.2-7.1 6.5 0 12.6 2.5 17.2 7.1L454.6 170.4zM481.1 143.9c-20.2-20.2-53-20.2-73.2 0l-7.1-7.1c24.1-24.1 63.3-24.1 87.4 0L481.1 143.9z"/><path fill="#c075ac" d="M414.4,387c-5.9-10.5-5.9-23.6,0-34.1l8.7,4.9c-4.2,7.5-4.2,16.8,0,24.3L414.4,387z"/><g><path fill="#c075ac" d="M445,405c-5.9,0-11.8-1.5-17-4.4l4.9-8.7c7.5,4.2,16.8,4.2,24.3,0l4.9,8.7
					C456.8,403.5,450.9,405,445,405z"/></g><g><path fill="#c075ac" d="M475.6,387l-8.7-4.9c4.2-7.5,4.2-16.8,0-24.3l8.7-4.9C481.4,363.5,481.4,376.5,475.6,387z
					"/></g><g><path fill="#c075ac" d="M432.8,348.2l-4.9-8.7c10.5-5.9,23.6-5.9,34.1,0l-4.9,8.7
					C449.7,344,440.3,344,432.8,348.2z"/></g><circle cx="256" cy="193" r="85" fill="#d84861"/><g><path fill="#f37787" d="M192.9,189.3L192.9,189.3c-6.2-0.4-10.5-6.2-9.2-12.2c6.1-27.7,27.8-49.7,55.4-56.1
				c6-1.4,11.9,2.8,12.4,9l0,0c0.3,4.9-2.9,9.3-7.6,10.4c-20.3,4.7-36.3,20.8-40.7,41.2C202.2,186.3,197.8,189.6,192.9,189.3z"/></g><polygon fill="#9ad2fc" points="231.2 158 231.2 228 291.2 193"/></svg>