<svg xmlns="http://www.w3.org/2000/svg" viewBox="0 0 128 128"><path fill="#7c86bb" d="M119.5,54.28a12.128,12.128,0,1,0,1.76,6.28A12.131,12.131,0,0,0,119.5,54.28Z"/><path fill="#fff" d="M80.4,80.75V40.91a.243.243,0,0,0-.24-.24H47.42a.243.243,0,0,0-.24.24V56.8c.01.02.02.03.04.03l.19.19a1.878,1.878,0,0,1,.25.24c.06.07.12.15.18.22a2.962,2.962,0,0,1,.21.26,2.1,2.1,0,0,1,.16.22,2.755,2.755,0,0,1,.17.29c.05.08.09.16.13.23.05.1.1.22.14.32a2.443,2.443,0,0,1,.1.24,3.3,3.3,0,0,1,.11.34,2.172,2.172,0,0,1,.07.24c.03.13.05.26.08.4.01.07.02.14.03.2.02.22.04.42.04.62a5.241,5.241,0,0,1-1.55,3.74c-.11.1-.23.22-.35.32v1.64c.01.02.02.02.04.04.07.06.13.12.19.17a2.949,2.949,0,0,1,.25.25c.06.08.12.14.18.22a2.962,2.962,0,0,1,.21.26,2.1,2.1,0,0,1,.16.22c.06.1.12.18.17.28.05.08.09.16.13.24.05.11.1.22.14.32a2.443,2.443,0,0,1,.1.24,3.3,3.3,0,0,1,.11.34,2.172,2.172,0,0,1,.07.24c.03.14.05.26.08.4.01.07.02.14.03.2.02.21.04.42.04.62a5.192,5.192,0,0,1-1.54,3.72c-.12.12-.24.24-.36.34v1.64c.01.02.02.02.04.04.07.06.13.12.19.18a2.949,2.949,0,0,1,.25.25c.06.07.12.13.18.21a2.962,2.962,0,0,1,.21.26,2.1,2.1,0,0,1,.16.22c.06.1.12.2.17.28s.09.16.13.24a3.09,3.09,0,0,1,.14.32,2.443,2.443,0,0,1,.1.24,2.669,2.669,0,0,1,.11.34,2.172,2.172,0,0,1,.07.24c.03.14.05.26.08.4.01.08.02.14.03.2.02.21.04.42.04.63a5.218,5.218,0,0,1-1.55,3.73c-.11.1-.23.22-.35.32v1.66c.01,0,.02.02.04.02a1.7,1.7,0,0,1,.19.19,2.949,2.949,0,0,1,.25.25c.06.06.12.14.18.2.07.08.14.18.21.26.05.08.11.16.16.24a1.892,1.892,0,0,1,.17.28c.05.08.09.16.13.24l.15.3c.03.08.06.16.09.26a1.694,1.694,0,0,1,.11.34,2.172,2.172,0,0,1,.07.24c.03.12.05.26.08.39.01.08.02.13.03.21a6.057,6.057,0,0,1,.04.62,5.3,5.3,0,0,1-1.55,3.72c-.11.11-.23.22-.35.32v2.76a.237.237,0,0,0,.24.24H76.13a20.268,20.268,0,0,1-.39-3.95,18.43,18.43,0,0,1,.31-3.39A19.294,19.294,0,0,1,80.4,80.75Zm-16.87.21a11.91,11.91,0,1,1,11.91-11.9A11.926,11.926,0,0,1,63.53,80.96Z"/><path fill="#2c3656" d="M106.36,78.505l1.37,1.45a10.809,10.809,0,0,1-2.72,1.84l-.88-1.8A8.937,8.937,0,0,0,106.36,78.505Z"/><path fill="#f7bd76" d="M114.71,58.46c-.01.22-.02.45-.05.68a10.087,10.087,0,0,1-.21,1.3,8.593,8.593,0,0,1-3.03,4.78,9.36,9.36,0,0,1-4.77,1.76,6.034,6.034,0,0,1-1.99-.08,8.563,8.563,0,0,0,1.81-1.02,1.014,1.014,0,0,0,.34-1.02,1,1,0,0,0-.79-.74,3.267,3.267,0,0,1-1.54-.6.938.938,0,0,0,.5-.48,1.008,1.008,0,0,0-.04-.94l-.06-.1a1,1,0,0,0-.63-.46,1.985,1.985,0,0,1-1.28-.88.983.983,0,0,0,.88-.64,1.017,1.017,0,0,0-.27-1.11,2.5,2.5,0,0,1-.9-1.71,10.791,10.791,0,0,0,6.54,2.47.932.932,0,0,0,.8-.37.991.991,0,0,0,.2-.86,2.1,2.1,0,0,1-.07-.56,2.33,2.33,0,0,1,2.33-2.32,2.3,2.3,0,0,1,1.69.74.9.9,0,0,0,.28.2,1,1,0,0,0,.09.68.819.819,0,0,0,.26.32A2.317,2.317,0,0,0,114.71,58.46Z"/><path fill="#2c3656" d="M101.49 80.975l.53 1.92a23.547 23.547 0 0 1-3.06.64l-.1-.66-.19-1.32A23.337 23.337 0 0 0 101.49 80.975zM118.19 55.34a1.791 1.791 0 0 0-.28-.2 1.035 1.035 0 0 0-.02-.81 1 1 0 0 0-.27-.35.96.96 0 0 0-1.27.02 5.841 5.841 0 0 1-1.2.48 4.426 4.426 0 0 0-2.67-.92 4.339 4.339 0 0 0-4.32 4 7.98 7.98 0 0 1-5.21-3 1.067 1.067 0 0 0-.8-.39 1.024 1.024 0 0 0-.8.41 4.625 4.625 0 0 0-.43 3.88 1.023 1.023 0 0 0-.35.74 4.585 4.585 0 0 0 1.29 3.24.969.969 0 0 0 .04.65 4.3 4.3 0 0 0 1.52 2.13 5.727 5.727 0 0 1-2.34.24 1 1 0 0 0-.97 1.48.817.817 0 0 0 .33.36 11.4 11.4 0 0 0 5.51 1.74 8.421 8.421 0 0 0 1-.08 11.142 11.142 0 0 0 5.73-2.2 10.54 10.54 0 0 0 3.71-5.85 11.083 11.083 0 0 0 .26-1.58c.03-.25.05-.51.06-.79v-.18a11.259 11.259 0 0 0 1.58-1.7A1.029 1.029 0 0 0 118.19 55.34zM104.66 66.9a8.563 8.563 0 0 0 1.81-1.02 1.014 1.014 0 0 0 .34-1.02 1 1 0 0 0-.79-.74 3.267 3.267 0 0 1-1.54-.6.938.938 0 0 0 .5-.48 1.008 1.008 0 0 0-.04-.94l-.06-.1a1 1 0 0 0-.63-.46 1.985 1.985 0 0 1-1.28-.88.983.983 0 0 0 .88-.64 1.017 1.017 0 0 0-.27-1.11 2.5 2.5 0 0 1-.9-1.71 10.791 10.791 0 0 0 6.54 2.47.932.932 0 0 0 .8-.37.991.991 0 0 0 .2-.86 2.1 2.1 0 0 1-.07-.56 2.33 2.33 0 0 1 2.33-2.32 2.3 2.3 0 0 1 1.69.74.9.9 0 0 0 .28.2 1 1 0 0 0 .09.68.819.819 0 0 0 .26.32 2.317 2.317 0 0 0-.09.96c-.01.22-.02.45-.05.68a10.087 10.087 0 0 1-.21 1.3 8.593 8.593 0 0 1-3.03 4.78 9.36 9.36 0 0 1-4.77 1.76A6.034 6.034 0 0 1 104.66 66.9zM98.49 16.625a.9.9 0 1 1 .89.89A.894.894 0 0 1 98.49 16.625z"/><path fill="#2c3656" d="M109.13 46.44a14.118 14.118 0 0 0-1.01 28.2 6.115 6.115 0 0 1-.34 1.77l1.87.71a7.7 7.7 0 0 0 .48-2.48 14.117 14.117 0 0 0-1-28.2zm0 26.26a12.128 12.128 0 1 1 12.13-12.14A12.09 12.09 0 0 1 109.13 72.7zM95.02 16.625a.9.9 0 1 1 .89.89A.894.894 0 0 1 95.02 16.625z"/><path fill="#f7bd76" d="M100.88,13.75c-.1-.15-1.74-2.51-6.28-2.19h-.04c-1.41.22-4.77,1.08-5.46,4.44-.02.14-.57,4.12,4.93,5.52.75.06,1.65.31,1.9,1.07a1.964,1.964,0,0,1,.09.59,22.45,22.45,0,0,0,4.25-3.16C102.24,17.88,102.44,15.83,100.88,13.75Zm-8.43,3.77a.9.9,0,1,1,.89-.9A.9.9,0,0,1,92.45,17.52Zm3.46,0a.9.9,0,1,1,.9-.9A.894.894,0,0,1,95.91,17.52Zm3.47,0a.9.9,0,1,1,.9-.9A.894.894,0,0,1,99.38,17.52Z"/><path fill="#f6f8f9" d="M99.03,114.88l-25.67,5.34-2.22-8.76a.973.973,0,0,0,.29-.7,1.009,1.009,0,0,0-1-1,7.616,7.616,0,0,1-6.02-2.59H78.99a2.278,2.278,0,0,0,2.04-1.21,2.314,2.314,0,0,0-.12-2.38,1.739,1.739,0,0,0-.11-.18c-.12-.2-.25-.38-.36-.58a7.855,7.855,0,0,1-.42-.76c-.08-.14-.16-.28-.25-.47-.27-.53-.5-1.07-.72-1.63l-.18-.48c-.1-.28-.18-.57-.27-.86-.08-.24-.17-.5-.23-.76l-.05-.19a17.711,17.711,0,0,1-.31-7.51,17.278,17.278,0,0,1,1.51-4.48,16.745,16.745,0,0,1,2.62-3.88,15.316,15.316,0,0,1,2.61-2.3l.43-.3.18-16.56a6.668,6.668,0,0,1,.23-1.62l.08-.19v-.05a6.343,6.343,0,0,1,5.05-4.42v12.4a9.552,9.552,0,0,0,.46,2.94l1.66,5.1c.55,1.72,1.09,3.4,1.49,5.1-.88.01-1.44-.02-1.45-.02l-.11,2s.42.02,1.13.02c.24,0,.52,0,.83-.02.1.64.19,1.29.24,1.95a78.637,78.637,0,0,1-.06,9.34c-.08,1.79-.17,3.63-.18,5.43-.02.42.17,1.04,1.3,3.96.25.66.47,1.2.53,1.4Z"/><path fill="#2c3656" d="M92.45,17.515a.9.9,0,1,1,.89-.89A.894.894,0,0,1,92.45,17.515Z"/><path fill="#7c86bb" d="M95.37,7.62a9.355,9.355,0,1,0,9.35,9.36A9.372,9.372,0,0,0,95.37,7.62Zm6.37,13.76a26.764,26.764,0,0,1-5.93,4.2,2.165,2.165,0,0,1-.68.14,1.2,1.2,0,0,1-.77-.26,1.3,1.3,0,0,1-.5-1.14l.05-.54a1.244,1.244,0,0,1,.04-.16.44.44,0,0,1,.02-.1c-.06,0-.12-.02-.18-.02a.875.875,0,0,1-.16-.02c-7.43-1.84-6.51-7.78-6.5-7.84.98-4.78,5.71-5.84,7.14-6.06.02,0,.12,0,.14-.02,5.83-.42,8.03,2.92,8.12,3.06C104.62,15.41,104.36,18.54,101.74,21.38Z"/><path fill="#2c3656" d="M95.37,5.62a11.355,11.355,0,1,0,11.35,11.36A11.359,11.359,0,0,0,95.37,5.62Zm0,20.71a9.355,9.355,0,1,1,9.35-9.35A9.363,9.363,0,0,1,95.37,26.33Z"/><path fill="#2c3656" d="M102.53 12.62c-.09-.14-2.29-3.48-8.12-3.06-.02.02-.12.02-.14.02-1.43.22-6.16 1.28-7.14 6.06-.01.06-.93 6 6.5 7.84a.875.875 0 0 0 .16.02c.06 0 .12.02.18.02a.44.44 0 0 0-.02.1 1.244 1.244 0 0 0-.04.16l-.05.54a1.3 1.3 0 0 0 .5 1.14 1.2 1.2 0 0 0 .77.26 2.165 2.165 0 0 0 .68-.14 26.764 26.764 0 0 0 5.93-4.2C104.36 18.54 104.62 15.41 102.53 12.62zM96.02 23.18a1.964 1.964 0 0 0-.09-.59c-.25-.76-1.15-1.01-1.9-1.07-5.5-1.4-4.95-5.38-4.93-5.52.69-3.36 4.05-4.22 5.46-4.44h.04c4.54-.32 6.18 2.04 6.28 2.19 1.56 2.08 1.36 4.13-.61 6.27A22.45 22.45 0 0 1 96.02 23.18zM83.63 16.625l.23 1.98c-.82.1-1.6.22-2.33.38l-.42-1.95C81.9 16.865 82.75 16.725 83.63 16.625zM78.08 17.945l.75 1.86a12.269 12.269 0 0 0-2.44 1.3l-1.15-1.64A14.2 14.2 0 0 1 78.08 17.945zM72.86 21.715l1.58 1.23a8.417 8.417 0 0 0-1.3 2.35l-1.88-.69A10.734 10.734 0 0 1 72.86 21.715z"/><path fill="#f7bd76" d="M73.39,68.16H68.21a17.042,17.042,0,0,0-.37-2.7,30.77,30.77,0,0,0,4.47-.98A9.943,9.943,0,0,1,73.39,68.16Z"/><path fill="#2c3656" d="M70.78,31.1a10.811,10.811,0,0,1-.23-2.33c0-.3.01-.62.04-.96l1.99.14c-.02.29-.03.56-.03.82a8.183,8.183,0,0,0,.18,1.87Z"/><path fill="#f7bd76" d="M73.37 70.16a9.747 9.747 0 0 1-1.07 3.48 30.7 30.7 0 0 0-4.38-.98 17.412 17.412 0 0 0 .3-2.5zM71.15 75.38a9.844 9.844 0 0 1-5.79 3.4 15.515 15.515 0 0 0 2.05-4.16A26.4 26.4 0 0 1 71.15 75.38z"/><path fill="#f6f8f9" d="M68.75,102.06a.444.444,0,0,1-.44.44h-9.2a.444.444,0,0,1-.44-.44.566.566,0,0,1,.03-.18.46.46,0,0,1,.41-.28h9.2A.462.462,0,0,1,68.75,102.06Z"/><path fill="#f7bd76" d="M71.15 62.74a29.393 29.393 0 0 1-3.85.76 15.149 15.149 0 0 0-2.21-4.22A9.83 9.83 0 0 1 71.15 62.74zM65.37 74.42a12.791 12.791 0 0 1-2 3.72 13.284 13.284 0 0 1-2-3.72A31.365 31.365 0 0 1 65.37 74.42zM65.25 63.68a33.689 33.689 0 0 1-3.75.02 12.976 12.976 0 0 1 1.87-3.37A13.215 13.215 0 0 1 65.25 63.68zM66.22 68.16H60.53a15.6 15.6 0 0 1 .36-2.48c.77.06 1.58.1 2.44.1.81 0 1.66-.03 2.53-.11A16.778 16.778 0 0 1 66.22 68.16zM66.23 70.16a16.909 16.909 0 0 1-.3 2.28 34.8 34.8 0 0 0-5.11 0 16.909 16.909 0 0 1-.3-2.28zM61.62 59.33a15.293 15.293 0 0 0-2.18 4.19 33.411 33.411 0 0 1-3.64-.66A10.03 10.03 0 0 1 61.62 59.33zM61.34 78.72a9.956 9.956 0 0 1-5.54-3.47 32.879 32.879 0 0 1 3.54-.63A15.61 15.61 0 0 0 61.34 78.72zM58.9 65.48a18.385 18.385 0 0 0-.37 2.68H53.66a9.992 9.992 0 0 1 1-3.52A28.454 28.454 0 0 0 58.9 65.48zM58.82 72.64a35.261 35.261 0 0 0-4.16.82 9.782 9.782 0 0 1-.98-3.3h4.85A16.963 16.963 0 0 0 58.82 72.64z"/><path fill="#2c3656" d="M52.63 32.465l-1.98.27a20.7 20.7 0 0 0-.56-2.8l1.93-.54A23.487 23.487 0 0 1 52.63 32.465zM50.91 26.425l-1.8.87a12.534 12.534 0 0 0-1.47-2.34l1.56-1.25A14.084 14.084 0 0 1 50.91 26.425z"/><path fill="#f6f8f9" d="M47.08 70.58a3.252 3.252 0 0 1-.96 2.32 4.867 4.867 0 0 1-.5.4 3.193 3.193 0 0 1-1.8.56H40.73a1.1 1.1 0 0 1-1.09-1.1V68.41a1.09 1.09 0 0 1 1.09-1.08h3.09a3.184 3.184 0 0 1 1.8.55A3.246 3.246 0 0 1 47.08 70.58zM47.08 80.33a3.246 3.246 0 0 1-.96 2.31 3.37 3.37 0 0 1-2.3.95H40.73a1.093 1.093 0 0 1-1.09-1.09V78.16a1.1 1.1 0 0 1 1.09-1.1h3.09a3.118 3.118 0 0 1 1.8.56A3.25 3.25 0 0 1 47.08 80.33zM47.08 90.08a3.24 3.24 0 0 1-.96 2.3 3.133 3.133 0 0 1-.5.4 3.184 3.184 0 0 1-1.8.55H40.73a1.09 1.09 0 0 1-1.09-1.08V87.91a1.086 1.086 0 0 1 1.09-1.09h3.09a3.175 3.175 0 0 1 1.8.54A3.281 3.281 0 0 1 47.08 90.08z"/><path fill="#2c3656" d="M46.85,21.455l-1.18,1.62a10.557,10.557,0,0,0-2.4-1.32l.74-1.86A12.613,12.613,0,0,1,46.85,21.455Z"/><path fill="#f6f8f9" d="M47.08,60.84a3.252,3.252,0,0,1-.96,2.32,4.867,4.867,0,0,1-.5.4,3.175,3.175,0,0,1-1.8.54H40.73a1.084,1.084,0,0,1-1.09-1.08V58.66a1.1,1.1,0,0,1,1.09-1.08h3.09a3.193,3.193,0,0,1,1.8.56h.01A3.236,3.236,0,0,1,47.08,60.84Z"/><path fill="#dee1e9" d="M83.67 58.46c0 .78-.01 1.5 0 2.02a7.962 7.962 0 0 0-.31 2.14l-.17 15.54c-.27.2-.53.4-.79.62V40.91a2.236 2.236 0 0 0-2.24-2.24H47.42a2.243 2.243 0 0 0-2.24 2.24V55.76a2.7 2.7 0 0 0-.39-.08 1.011 1.011 0 0 0-.23-.04 4.616 4.616 0 0 0-.74-.06L43.78 37a.293.293 0 0 1 .29-.3H83.36a.293.293 0 0 1 .29.3l.03 19.42C83.68 57.08 83.68 57.78 83.67 58.46zM79.25 104.67a15.3 15.3 0 0 1-.98-1.63 6.176 6.176 0 0 1-.3-.58c-.12-.24-.25-.5-.37-.79a4.083 4.083 0 0 1-.19-.42c-.04-.09-.08-.19-.12-.29a19.081 19.081 0 0 1-.65-1.84H47.42a2.243 2.243 0 0 1-2.24-2.24V95.16c-.12.02-.25.04-.38.06a2.1 2.1 0 0 1-.24.06 4.68 4.68 0 0 1-.74.05h-.04v9.57a.287.287 0 0 0 .29.27H78.99a.319.319 0 0 0 .28-.15 1.275 1.275 0 0 0 .04-.14A.4.4 0 0 0 79.25 104.67zm-10.94-.17h-9.2a2.431 2.431 0 0 1-2.44-2.44 2.539 2.539 0 0 1 .41-1.38 2.5 2.5 0 0 1 2.03-1.08h9.2a2.45 2.45 0 0 1 0 4.9z"/><rect width="2.849" height="1.996" x="39.171" y="107.807" fill="#2c3656" transform="rotate(-22.068 40.595 108.806)"/><path fill="#2c3656" d="M40.89 19.055l-.3 1.98a12.358 12.358 0 0 0-1.9-.15c-.49 0-.79.04-.82.04l-.24-1.99a9.24 9.24 0 0 1 1.06-.05A14.819 14.819 0 0 1 40.89 19.055zM101.25 115.38l-2.77-9.98c-.09-.26-.31-.86-.58-1.56-.38-.98-1.08-2.78-1.17-3.22.01-1.79.1-3.6.18-5.36a80.465 80.465 0 0 0 .05-9.58c-.07-.85-.17-1.68-.31-2.48a51.768 51.768 0 0 0-1.91-7l-1.66-5.12a7.645 7.645 0 0 1-.36-2.32V55.26a1.059 1.059 0 0 0-.3-.72 1 1 0 0 0-.72-.28 8.5 8.5 0 0 0-6.02 2.62v-.46L85.65 37a2.3 2.3 0 0 0-2.29-2.3H44.07A2.3 2.3 0 0 0 41.78 37V55.58H40.73a3.09 3.09 0 0 0-3.09 3.08v4.36a3.094 3.094 0 0 0 1.61 2.7 3.09 3.09 0 0 0-1.61 2.69v4.35a3.094 3.094 0 0 0 1.61 2.7 3.07 3.07 0 0 0-1.61 2.7V82.5a3.083 3.083 0 0 0 1.62 2.7 3.087 3.087 0 0 0-1.62 2.71v4.34a3.1 3.1 0 0 0 3.09 3.08h1.05v9.57a2.279 2.279 0 0 0 2.29 2.27H61.71c1.92 2.27 3.92 4.13 7.42 4.51l2.53 9.96a.994.994 0 0 0 .96.74.749.749 0 0 0 .21-.02l27.66-5.74a.939.939 0 0 0 .65-.45A1.027 1.027 0 0 0 101.25 115.38zM44.07 36.7H83.36a.293.293 0 0 1 .29.3l.03 19.42c0 .66 0 1.36-.01 2.04 0 .78-.01 1.5 0 2.02a7.962 7.962 0 0 0-.31 2.14l-.17 15.54c-.27.2-.53.4-.79.62V40.91a2.236 2.236 0 0 0-2.24-2.24H47.42a2.243 2.243 0 0 0-2.24 2.24V55.76a2.7 2.7 0 0 0-.39-.08 1.011 1.011 0 0 0-.23-.04 4.616 4.616 0 0 0-.74-.06L43.78 37A.293.293 0 0 1 44.07 36.7zm-.29 68.2V95.33h.04a4.68 4.68 0 0 0 .74-.05 2.1 2.1 0 0 0 .24-.06c.13-.02.26-.04.38-.06v1.72a2.243 2.243 0 0 0 2.24 2.24H76.64a19.081 19.081 0 0 0 .65 1.84c.04.1.08.2.12.29a4.083 4.083 0 0 0 .19.42c.12.29.25.55.37.79a6.176 6.176 0 0 0 .3.58 15.3 15.3 0 0 0 .98 1.63.4.4 0 0 1 .06.21 1.275 1.275 0 0 1-.04.14.319.319 0 0 1-.28.15H44.07A.287.287 0 0 1 43.78 104.9zM76.05 89.78a18.43 18.43 0 0 0-.31 3.39 20.268 20.268 0 0 0 .39 3.95H47.42a.237.237 0 0 1-.24-.24V94.12c.12-.1.24-.21.35-.32a5.3 5.3 0 0 0 1.55-3.72 6.057 6.057 0 0 0-.04-.62c-.01-.08-.02-.13-.03-.21-.03-.13-.05-.27-.08-.39a2.172 2.172 0 0 0-.07-.24 1.694 1.694 0 0 0-.11-.34c-.03-.1-.06-.18-.09-.26l-.15-.3c-.04-.08-.08-.16-.13-.24a1.892 1.892 0 0 0-.17-.28c-.05-.08-.11-.16-.16-.24-.07-.08-.14-.18-.21-.26-.06-.06-.12-.14-.18-.2a2.949 2.949 0 0 0-.25-.25 1.7 1.7 0 0 0-.19-.19c-.02 0-.03-.02-.04-.02V84.38c.12-.1.24-.22.35-.32a5.218 5.218 0 0 0 1.55-3.73c0-.21-.02-.42-.04-.63-.01-.06-.02-.12-.03-.2-.03-.14-.05-.26-.08-.4a2.172 2.172 0 0 0-.07-.24 2.669 2.669 0 0 0-.11-.34 2.443 2.443 0 0 0-.1-.24 3.09 3.09 0 0 0-.14-.32c-.04-.08-.08-.16-.13-.24s-.11-.18-.17-.28a2.1 2.1 0 0 0-.16-.22 2.962 2.962 0 0 0-.21-.26c-.06-.08-.12-.14-.18-.21a2.949 2.949 0 0 0-.25-.25c-.06-.06-.12-.12-.19-.18-.02-.02-.03-.02-.04-.04V74.64c.12-.1.24-.22.36-.34a5.192 5.192 0 0 0 1.54-3.72c0-.2-.02-.41-.04-.62-.01-.06-.02-.13-.03-.2-.03-.14-.05-.26-.08-.4a2.172 2.172 0 0 0-.07-.24 3.3 3.3 0 0 0-.11-.34 2.443 2.443 0 0 0-.1-.24c-.04-.1-.09-.21-.14-.32-.04-.08-.08-.16-.13-.24-.05-.1-.11-.18-.17-.28a2.1 2.1 0 0 0-.16-.22 2.962 2.962 0 0 0-.21-.26c-.06-.08-.12-.14-.18-.22a2.949 2.949 0 0 0-.25-.25c-.06-.05-.12-.11-.19-.17-.02-.02-.03-.02-.04-.04V64.9c.12-.1.24-.22.35-.32a5.241 5.241 0 0 0 1.55-3.74c0-.2-.02-.4-.04-.62-.01-.06-.02-.13-.03-.2-.03-.14-.05-.27-.08-.4a2.172 2.172 0 0 0-.07-.24 3.3 3.3 0 0 0-.11-.34 2.443 2.443 0 0 0-.1-.24c-.04-.1-.09-.22-.14-.32-.04-.07-.08-.15-.13-.23a2.755 2.755 0 0 0-.17-.29 2.1 2.1 0 0 0-.16-.22 2.962 2.962 0 0 0-.21-.26c-.06-.07-.12-.15-.18-.22a1.878 1.878 0 0 0-.25-.24l-.19-.19c-.02 0-.03-.01-.04-.03V40.91a.243.243 0 0 1 .24-.24H80.16a.243.243 0 0 1 .24.24V80.75A19.294 19.294 0 0 0 76.05 89.78zM39.64 58.66a1.1 1.1 0 0 1 1.09-1.08h3.09a3.193 3.193 0 0 1 1.8.56h.01a3.258 3.258 0 0 1 .49 5.02 4.867 4.867 0 0 1-.5.4 3.175 3.175 0 0 1-1.8.54H40.73a1.084 1.084 0 0 1-1.09-1.08zm0 9.75a1.09 1.09 0 0 1 1.09-1.08h3.09a3.184 3.184 0 0 1 1.8.55 3.251 3.251 0 0 1 .5 5.02 4.867 4.867 0 0 1-.5.4 3.193 3.193 0 0 1-1.8.56H40.73a1.1 1.1 0 0 1-1.09-1.1zm0 9.75a1.1 1.1 0 0 1 1.09-1.1h3.09a3.118 3.118 0 0 1 1.8.56 3.251 3.251 0 0 1 .5 5.02 3.37 3.37 0 0 1-2.3.95H40.73a1.093 1.093 0 0 1-1.09-1.09zm1.09 15.17a1.09 1.09 0 0 1-1.09-1.08V87.91a1.086 1.086 0 0 1 1.09-1.09h3.09a3.175 3.175 0 0 1 1.8.54 3.281 3.281 0 0 1 1.46 2.72 3.24 3.24 0 0 1-.96 2.3 3.133 3.133 0 0 1-.5.4 3.184 3.184 0 0 1-1.8.55zm32.63 26.89l-2.22-8.76a.973.973 0 0 0 .29-.7 1.009 1.009 0 0 0-1-1 7.616 7.616 0 0 1-6.02-2.59H78.99a2.278 2.278 0 0 0 2.04-1.21 2.314 2.314 0 0 0-.12-2.38 1.739 1.739 0 0 0-.11-.18c-.12-.2-.25-.38-.36-.58a7.855 7.855 0 0 1-.42-.76c-.08-.14-.16-.28-.25-.47-.27-.53-.5-1.07-.72-1.63l-.18-.48c-.1-.28-.18-.57-.27-.86-.08-.24-.17-.5-.23-.76l-.05-.19a17.711 17.711 0 0 1-.31-7.51 17.278 17.278 0 0 1 1.51-4.48 16.745 16.745 0 0 1 2.62-3.88 15.316 15.316 0 0 1 2.61-2.3l.43-.3.18-16.56a6.668 6.668 0 0 1 .23-1.62l.08-.19v-.05a6.343 6.343 0 0 1 5.05-4.42v12.4a9.552 9.552 0 0 0 .46 2.94l1.66 5.1c.55 1.72 1.09 3.4 1.49 5.1-.88.01-1.44-.02-1.45-.02l-.11 2s.42.02 1.13.02c.24 0 .52 0 .83-.02.1.64.19 1.29.24 1.95a78.637 78.637 0 0 1-.06 9.34c-.08 1.79-.17 3.63-.18 5.43-.02.42.17 1.04 1.3 3.96.25.66.47 1.2.53 1.4l2.47 8.92z"/><path fill="#2c3656" d="M68.31 99.6h-9.2a2.5 2.5 0 0 0-2.03 1.08 2.539 2.539 0 0 0-.41 1.38 2.431 2.431 0 0 0 2.44 2.44h9.2a2.45 2.45 0 0 0 0-4.9zm0 2.9h-9.2a.444.444 0 0 1-.44-.44.566.566 0 0 1 .03-.18.46.46 0 0 1 .41-.28h9.2a.462.462 0 0 1 .44.46A.444.444 0 0 1 68.31 102.5zM63.53 57.14A11.91 11.91 0 1 0 75.44 69.06 11.931 11.931 0 0 0 63.53 57.14zm1.83 21.64a15.515 15.515 0 0 0 2.05-4.16 26.4 26.4 0 0 1 3.74.76A9.844 9.844 0 0 1 65.36 78.78zm5.79-16.04a29.393 29.393 0 0 1-3.85.76 15.149 15.149 0 0 0-2.21-4.22A9.83 9.83 0 0 1 71.15 62.74zm-4.92 7.42a16.909 16.909 0 0 1-.3 2.28 34.8 34.8 0 0 0-5.11 0 16.909 16.909 0 0 1-.3-2.28zm-5.7-2a15.6 15.6 0 0 1 .36-2.48c.77.06 1.58.1 2.44.1.81 0 1.66-.03 2.53-.11a16.778 16.778 0 0 1 .36 2.49zm4.72-4.48a33.689 33.689 0 0 1-3.75.02 12.976 12.976 0 0 1 1.87-3.37A13.215 13.215 0 0 1 65.25 63.68zm-3.63-4.35a15.293 15.293 0 0 0-2.18 4.19 33.411 33.411 0 0 1-3.64-.66A10.03 10.03 0 0 1 61.62 59.33zM58.9 65.48a18.385 18.385 0 0 0-.37 2.68H53.66a9.992 9.992 0 0 1 1-3.52A28.454 28.454 0 0 0 58.9 65.48zm-.37 4.68a16.963 16.963 0 0 0 .29 2.48 35.261 35.261 0 0 0-4.16.82 9.782 9.782 0 0 1-.98-3.3zm.81 4.46a15.61 15.61 0 0 0 2 4.1 9.956 9.956 0 0 1-5.54-3.47A32.879 32.879 0 0 1 59.34 74.62zm6.03-.2a12.791 12.791 0 0 1-2 3.72 13.284 13.284 0 0 1-2-3.72A31.365 31.365 0 0 1 65.37 74.42zm2.55-1.76a17.412 17.412 0 0 0 .3-2.5h5.15a9.747 9.747 0 0 1-1.07 3.48A30.7 30.7 0 0 0 67.92 72.66zm.29-4.5a17.042 17.042 0 0 0-.37-2.7 30.77 30.77 0 0 0 4.47-.98 9.943 9.943 0 0 1 1.08 3.68zM36.88 111.4l-.63.26a1.332 1.332 0 0 1-.19.05c-.81.16-1.6.29-2.35.39l-.26-1.98c.68-.1 1.4-.21 2.13-.35l.54-.22zM30.56 110.365l.07 1.99c-.31.02-.6.02-.89.02-.78 0-1.53-.04-2.24-.11l.2-1.99A21.885 21.885 0 0 0 30.56 110.365z"/><path fill="#7c86bb" d="M18.87,75.9A12.13,12.13,0,1,0,31,88.02,12.133,12.133,0,0,0,18.87,75.9ZM23.05,81a1,1,0,0,1-1.31.54,1.316,1.316,0,0,0-.56-.13H20.07a1.443,1.443,0,0,0-1.44,1.45v2.62h2.35a1,1,0,1,1,0,2H18.63v8.14a1,1,0,0,1-2,0V87.48H15.61a1,1,0,0,1,0-2h1.02V82.86a3.448,3.448,0,0,1,3.44-3.45h1.11a3.394,3.394,0,0,1,1.34.29A.984.984,0,0,1,23.05,81Z"/><circle cx="26.66" cy="20.635" r=".67" fill="#2c3656"/><path fill="#2c3656" d="M24.97,109.725l-.6,1.91a11.4,11.4,0,0,1-2.96-1.4l1.12-1.66A9.17,9.17,0,0,0,24.97,109.725Z"/><path fill="#f6f8f9" d="M24.31,24.98a2.375,2.375,0,1,1-2.37-2.36A2.377,2.377,0,0,1,24.31,24.98Z"/><path fill="#2c3656" d="M20.67 106.745l-1.65 1.13a7.494 7.494 0 0 1-1.29-3.23l1.99-.2A5.7 5.7 0 0 0 20.67 106.745zM21.94 20.62a4.37 4.37 0 1 0 4.37 4.36A4.381 4.381 0 0 0 21.94 20.62zm0 6.74a2.37 2.37 0 1 1 2.37-2.38A2.379 2.379 0 0 1 21.94 27.36z"/><path fill="#f7bd76" d="M27.31,18.9H16.56a1.084,1.084,0,0,0-1.09,1.08v9.36a1.088,1.088,0,0,0,1.09,1.1H27.31a1.088,1.088,0,0,0,1.09-1.1V19.98A1.084,1.084,0,0,0,27.31,18.9ZM21.94,29.36a4.37,4.37,0,1,1,4.37-4.38A4.385,4.385,0,0,1,21.94,29.36Zm4.72-8.06a.67.67,0,1,1,.67-.66A.668.668,0,0,1,26.66,21.3Z"/><path fill="#2c3656" d="M16.63,82.855a3.446,3.446,0,0,1,3.44-3.44h1.11a3.386,3.386,0,0,1,1.34.28,1,1,0,1,1-.78,1.84,1.309,1.309,0,0,0-.56-.12H20.07a1.44,1.44,0,0,0-1.44,1.44v2.62h2.35a1,1,0,1,1,0,2H18.63v8.15a1,1,0,0,1-2,0v-8.15H15.61a1,1,0,0,1,0-2h1.02Z"/><path fill="#7c86bb" d="M21.94,12.54A12.13,12.13,0,1,0,34.06,24.66,12.14,12.14,0,0,0,21.94,12.54Zm8.46,16.8a3.094,3.094,0,0,1-3.09,3.1H16.56a3.094,3.094,0,0,1-3.09-3.1V19.98a3.09,3.09,0,0,1,3.09-3.08H27.31a3.09,3.09,0,0,1,3.09,3.08Z"/><path fill="#2c3656" d="M21.94,10.54A14.13,14.13,0,1,0,36.06,24.66,14.139,14.139,0,0,0,21.94,10.54Zm0,26.26A12.13,12.13,0,1,1,34.06,24.66,12.144,12.144,0,0,1,21.94,36.8Z"/><path fill="#2c3656" d="M27.31 16.9H16.56a3.09 3.09 0 0 0-3.09 3.08v9.36a3.094 3.094 0 0 0 3.09 3.1H27.31a3.094 3.094 0 0 0 3.09-3.1V19.98A3.09 3.09 0 0 0 27.31 16.9zM28.4 29.34a1.088 1.088 0 0 1-1.09 1.1H16.56a1.088 1.088 0 0 1-1.09-1.1V19.98a1.084 1.084 0 0 1 1.09-1.08H27.31a1.084 1.084 0 0 1 1.09 1.08zM18.87 73.9A14.13 14.13 0 1 0 33 88.02 14.146 14.146 0 0 0 18.87 73.9zm0 26.26A12.13 12.13 0 1 1 31 88.02 12.144 12.144 0 0 1 18.87 100.16z"/></svg>