<svg xmlns="http://www.w3.org/2000/svg" viewBox="0 0 32 32"><rect width="29" height="25.13" x="1.5" y="5.37" fill="#4e689b" rx="3.01" ry="3.01"/><path fill="#333" d="M27.49,31h-23A3.51,3.51,0,0,1,1,27.49V8.37a3.51,3.51,0,0,1,3.51-3.5h23A3.51,3.51,0,0,1,31,8.37V27.49A3.51,3.51,0,0,1,27.49,31ZM4.51,5.87A2.5,2.5,0,0,0,2,8.37V27.49A2.51,2.51,0,0,0,4.51,30h23A2.51,2.51,0,0,0,30,27.49V8.37a2.5,2.5,0,0,0-2.51-2.5Z"/><path fill="#234177" d="M22.77,3.88V6.33a1,1,0,0,1-1,1H10.2a1,1,0,0,1-1-1V3.88A2.38,2.38,0,0,1,11.61,1.5h8.78A2.38,2.38,0,0,1,22.77,3.88Z"/><path fill="#333" d="M21.8,7.8H10.2A1.47,1.47,0,0,1,8.73,6.33V3.88A2.88,2.88,0,0,1,11.61,1h8.78a2.88,2.88,0,0,1,2.88,2.88V6.33A1.47,1.47,0,0,1,21.8,7.8ZM11.61,2A1.88,1.88,0,0,0,9.73,3.88V6.33a.47.47,0,0,0,.47.47H21.8a.47.47,0,0,0,.47-.47V3.88A1.88,1.88,0,0,0,20.39,2Z"/><path fill="#8fc8f5" d="M22.73,6.61,16.93,26a1,1,0,0,1-1.86,0L9.27,6.61a1,1,0,0,1,.16-.86,1,1,0,0,1,.77-.38H21.8a1,1,0,0,1,.77.38A1,1,0,0,1,22.73,6.61Z"/><path fill="#333" d="M16,27.17a1.48,1.48,0,0,1-1.41-1L8.79,6.76A1.51,1.51,0,0,1,9,5.46a1.47,1.47,0,0,1,1.18-.59H21.8A1.46,1.46,0,0,1,23,5.45a1.49,1.49,0,0,1,.24,1.3h0l-5.8,19.37A1.48,1.48,0,0,1,16,27.17ZM10.2,5.87a.49.49,0,0,0-.38.19.5.5,0,0,0-.07.41l5.8,19.37a.49.49,0,0,0,.9,0l5.8-19.37a.49.49,0,0,0-.08-.42.47.47,0,0,0-.37-.18Zm12.53.74h0Z"/><path fill="#bc0e5c" d="M19.05,18.9,16.93,26a1,1,0,0,1-1.86,0L13,18.9a1,1,0,0,1,0-.54l2.12-7.57a1,1,0,0,1,1.86,0l2.12,7.57A1,1,0,0,1,19.05,18.9Z"/><path fill="#333" d="M16,27.17a1.48,1.48,0,0,1-1.41-1L12.48,19a1.4,1.4,0,0,1,0-.81l2.13-7.58a1.46,1.46,0,0,1,2.82,0l2.13,7.56a1.46,1.46,0,0,1,0,.83l-2.11,7.08A1.48,1.48,0,0,1,16,27.17Zm0-16.59a.47.47,0,0,0-.45.34l-2.12,7.57a.46.46,0,0,0,0,.26l2.12,7.09a.49.49,0,0,0,.9,0l2.12-7.08h0a.46.46,0,0,0,0-.26l-2.12-7.56A.47.47,0,0,0,16,10.58Z"/><path fill="#374c81" d="M26.64,10.58l-2,5.73a1,1,0,0,1-.92.66h-.6l1.2,1.82a1,1,0,0,1,0,1.11L16.78,30.1h0s0,0,0,0a.76.76,0,0,1-.29.24l-.08.05-.09,0a.92.92,0,0,1-.6,0l-.09,0-.08-.05a.76.76,0,0,1-.29-.24s0,0,0,0h0L7.67,19.9a1,1,0,0,1,0-1.11L8.84,17h-.6a1,1,0,0,1-.92-.66l-2-5.73a1,1,0,0,1,.23-1L9.51,5.65a1,1,0,0,1,.93-.25,1,1,0,0,1,.69.65L16,22.33,20.87,6.05a1,1,0,0,1,.69-.65,1,1,0,0,1,.93.25l3.92,3.93A1,1,0,0,1,26.64,10.58Z"/><path fill="#333" d="M16,31a1.69,1.69,0,0,1-.44-.07l-.13-.05-.09-.05a1.66,1.66,0,0,1-.48-.37l0-.06L7.26,20.19a1.46,1.46,0,0,1,0-1.67l.71-1.09a1.44,1.44,0,0,1-1.08-1l-2-5.73a1.47,1.47,0,0,1,.36-1.52L9.16,5.29a1.51,1.51,0,0,1,1.4-.38,1.49,1.49,0,0,1,1,1L16,20.59,20.39,5.91a1.49,1.49,0,0,1,1-1,1.52,1.52,0,0,1,1.41.38l3.92,3.94a1.44,1.44,0,0,1,.36,1.51h0l-2,5.73a1.44,1.44,0,0,1-1.08,1l.71,1.09a1.46,1.46,0,0,1-.05,1.68L17.19,30.4l-.06.06a1.4,1.4,0,0,1-.41.34l-.18.09-.1,0A1.69,1.69,0,0,1,16,31Zm-.17-1,.05,0a.74.74,0,0,0,.28,0s0,0,0,0a.76.76,0,0,0,.15-.1.39.39,0,0,1,.08-.1l7.5-10.14a.45.45,0,0,0,0-.53l-1.19-1.83a.49.49,0,0,1,0-.51.51.51,0,0,1,.44-.26h.6a.47.47,0,0,0,.45-.32l2-5.73a.49.49,0,0,0-.11-.48L22.13,6a.5.5,0,0,0-.46-.12.49.49,0,0,0-.32.32L16.48,22.48a.52.52,0,0,1-1,0L10.65,6.2A.47.47,0,0,0,9.87,6L5.94,9.93a.49.49,0,0,0-.11.49l2,5.73a.47.47,0,0,0,.45.32h.6a.51.51,0,0,1,.44.26.49.49,0,0,1,0,.51L8.06,19.07a.43.43,0,0,0,0,.52l7.51,10.17h0a.13.13,0,0,1,.06.07.5.5,0,0,0,.14.1ZM26.64,10.58h0Z"/><path fill="#de1263" d="M19.56,6.82l-2.72,4.71a1,1,0,0,1-1.68,0L12.44,6.82a1,1,0,0,1,.84-1.45h5.44a1,1,0,0,1,.84,1.45Z"/><path fill="#333" d="M16,12.52a1.5,1.5,0,0,1-1.27-.73L12,7.07a1.47,1.47,0,0,1,1.27-2.2h5.44A1.47,1.47,0,0,1,20,7.07l-2.72,4.71A1.49,1.49,0,0,1,16,12.52ZM13.28,5.87a.47.47,0,0,0-.4.23.44.44,0,0,0,0,.47l2.71,4.71a.5.5,0,0,0,.82,0l2.71-4.71h0a.49.49,0,0,0,0-.47.5.5,0,0,0-.41-.23Z"/></svg>